PathFileType	3	(X/Y/Z)	C:\Users\koon_\Desktop\
DataRate	CameraRate	NumFrames	NumMarkers	Units	OrigDataRate	OrigDataStartFrame	OrigNumFrames
100.0	100.0	4	27	mm	100.0	476	3804	
Frame#	Time	get:LFHD			get:RFHD			get:LBHD			get:RBHD			get:C7			get:T10			get:CLAV			get:STRN			get:RBAK			get:LSHO			get:LUPA			get:LELB			get:LFRA			get:LWRA			get:LWRB			get:LFIN			get:RSHO			get:RUPA			get:RELB			get:RFRA			get:RWRA			get:RWRB			get:RFIN			get:LASI			get:RASI			get:LPSI			get:RPSI			
		X1	Y1	Z1	X2	Y2	Z2	X3	Y3	Z3	X4	Y4	Z4	X5	Y5	Z5	X6	Y6	Z6	X7	Y7	Z7	X8	Y8	Z8	X9	Y9	Z9	X10	Y10	Z10	X11	Y11	Z11	X12	Y12	Z12	X13	Y13	Z13	X14	Y14	Z14	X15	Y15	Z15	X16	Y16	Z16	X17	Y17	Z17	X18	Y18	Z18	X19	Y19	Z19	X20	Y20	Z20	X21	Y21	Z21	X22	Y22	Z22	X23	Y23	Z23	X24	Y24	Z24	X25	Y25	Z25	X26	Y26	Z26	X27	Y27	Z27	
476	4.75	39.207245	1552.4326	12.757234	-100.39118	1543.6794	-5.263443	35.840515	1558.9725	-149.32838	-90.625679	1526.8508	-171.42125	-13.506975	1338.6375	-184.18309	-22.444101	1139.0719	-244.48737	-19.187624	1252.7847	3.2292409	-17.847088	1054.9794	18.811731	-103.10369	1271.0896	-215.61139	115.59046	1331.9685	-96.646446	204.29846	1204.4352	-57.139465	247.6973	1034.1309	-17.776442	210.21881	1054.2712	109.38589	174.66347	1059.6708	183.84479	218.44261	985.72491	178.33032	246.67009	1052.1538	239.74997	-146.9767	1336.3717	-94.583931	-253.52168	1144.652	-23.464497	-301.07703	1029.7974	-30.912197	-258.94366	1069.3042	46.703621	-187.02087	1041.0068	171.72205	-225.73279	971.90698	172.58154	-229.57112	1028.6484	249.14468	112.43733	891.78735	-43.222488	-154.19547	872.58771	-54.992016	27.439396	941.14185	-264.1925	-62.195702	936.36151	-270.07288
477	4.76	38.053551	1551.6631	12.376362	-101.59103	1543.0425	-5.6190434	34.595032	1557.9105	-149.83144	-91.853844	1525.9271	-171.92128	-14.431611	1337.8438	-184.18242	-23.146233	1138.4857	-244.71858	-21.078964	1251.7321	3.3430312	-19.692711	1054.0276	18.568186	-104.18216	1270.2968	-215.75319	114.0541	1331.1155	-95.663727	202.19223	1204.5436	-53.452656	245.58452	1034.4855	-9.3436375	207.75932	1053.5985	118.01563	171.97299	1058.6398	192.30429	215.2635	984.37714	186.70952	243.35895	1049.8778	249.20695	-148.30164	1335.3462	-94.897537	-254.64085	1144.5441	-21.17054	-302.57599	1029.3629	-27.686258	-260.88815	1068.2465	51.831669	-190.95686	1038.6824	176.54753	-230.28349	969.62555	177.32277	-234.66127	1026.462	253.12668	110.9489	891.38257	-43.351738	-155.62996	871.9256	-56.031342	27.118958	939.86664	-264.74341	-62.535503	935.1004	-271.02753
478	4.77	36.973877	1550.7787	11.875944	-102.67958	1542.259	-5.8783946	33.395153	1556.5588	-150.2597	-93.181313	1524.7458	-172.14784	-15.395046	1336.8546	-183.98328	-23.967077	1137.738	-244.89079	-22.764944	1250.5	3.4256847	-21.422522	1052.9152	18.206549	-105.37112	1269.3319	-215.70488	112.56734	1330.1273	-94.619873	200.12201	1204.5746	-49.898602	243.57848	1034.8386	-1.0516591	205.47902	1052.8622	126.42868	169.55879	1057.624	200.50662	212.05199	982.96179	194.99022	240.18417	1047.5181	258.46646	-149.57477	1334.1483	-94.985962	-255.67198	1144.3311	-18.955866	-303.88666	1028.7695	-24.068373	-262.86957	1067.2218	55.108089	-194.69676	1036.255	181.84694	-234.63811	967.24133	182.53795	-239.42557	1023.5264	257.81482	109.61063	890.89355	-43.636406	-157.0432	871.24524	-57.004387	26.672068	938.48541	-265.42374	-62.899277	933.65906	-271.90588
479	4.78	35.947765	1549.74	11.40501	-103.76863	1541.3622	-6.1692367	32.120468	1555.1339	-150.78154	-94.503296	1523.3784	-172.4052	-16.450476	1335.7662	-183.86282	-24.845776	1136.8987	-245.10034	-24.331554	1249.0524	3.5467889	-23.009037	1051.7794	18.215162	-106.63569	1268.3138	-215.7345	111.1282	1329.0319	-93.594261	198.24504	1204.4727	-46.6549	241.59396	1035.1023	6.9201713	203.30743	1051.9879	134.61076	167.09114	1056.4872	208.76451	208.9166	981.42389	202.87151	237.13589	1045.2737	267.39331	-150.82895	1332.7225	-94.763283	-256.65262	1144.0452	-16.390282	-305.08658	1028.1439	-20.321199	-264.65808	1065.9497	60.02285	-198.47643	1033.7068	187.56949	-238.55563	965.23206	185.63223	-244.16232	1020.5082	262.97842	108.30827	890.15344	-44.031509	-158.33556	870.35205	-58.010094	26.155893	936.96948	-266.10077	-63.402699	932.04742	-272.76672
